<svg xmlns="http://www.w3.org/2000/svg" viewBox="0 0 39.27 39.63"><defs><style>.cls-1{fill:#ff1478;}.cls-2{fill:#fff;}</style></defs><g id="Lag_2" data-name="Lag 2"><g id="Lag_1-2" data-name="Lag 1"><path class="cls-1" d="M28.08,6a10.72,10.72,0,0,1,7.85,3.34,10.72,10.72,0,0,1,3.34,7.85V22.3a10.72,10.72,0,0,1-3.34,7.85,10.72,10.72,0,0,1-7.85,3.34H11.19a10.72,10.72,0,0,1-7.85-3.34A10.72,10.72,0,0,1,0,22.3V17.2A10.72,10.72,0,0,1,3.34,9.35,10.69,10.69,0,0,1,11.19,6Z"/><polygon class="cls-2" points="23.5 0 3.99 20.9 18.12 20.9 7.35 39.63 34.26 15.85 20.81 15.85 23.5 0"/></g></g></svg>