<?xml version="1.0" encoding="utf-8"?>
<svg viewBox="-0.0005 0 220.6419 115.4886" width="220.6419" height="115.4886" xmlns="http://www.w3.org/2000/svg" xmlns:bx="https://boxy-svg.com">
  <defs>
    <style>.cls-1{fill:#4d4854;}.cls-2{fill:#ff1478;}.cls-3{fill:#fff0;}</style>
    <bx:guide x="21.482" y="27.161" angle="90"/>
  </defs>
  <path class="cls-1" d="M36.36,42.82a7,7,0,0,1,6.84,6.84V88q0,10.2-3,15.78t-10.86,8.4q-7.86,2.82-22.5,3.3A6.16,6.16,0,0,1,2,113.52a6.57,6.57,0,0,1-2-4.8V105a6.47,6.47,0,0,1,2-4.74A7.42,7.42,0,0,1,6.72,98q7.8-.36,10.14-2.4T19.2,88V49.66A7,7,0,0,1,26,42.82Z"/>
  <path class="cls-2" d="M96,42.61a7,7,0,0,1,6.84,6.84v1.92a17.84,17.84,0,0,1-4.44,12L76.56,89.05a.35.35,0,0,0-.12.24.11.11,0,0,0,.12.12H96a7,7,0,0,1,6.84,6.84v1.92A7,7,0,0,1,96,105H54.48a7,7,0,0,1-6.84-6.84V96.25a17.84,17.84,0,0,1,4.44-12L73.92,58.57a.35.35,0,0,0,.12-.24.11.11,0,0,0-.12-.12H54.48a7,7,0,0,1-6.84-6.84V49.45a7,7,0,0,1,6.84-6.84Z" style=""/>
  <path class="cls-1" d="M110.28,50q8.52-8.58,23.88-8.58T158,50q8.52,8.58,8.52,23.82T158,97.63q-8.52,8.58-23.88,8.58t-23.88-8.58q-8.52-8.58-8.52-23.82T110.28,50m16.56,36.84q2.28,3.78,7.32,3.78t7.32-3.78q2.28-3.78,2.28-13t-2.28-13Q139.2,57,134.16,57t-7.32,3.78q-2.28,3.78-2.28,13t2.28,13"/>
  <path class="cls-1" d="M213.84,42.85a5.48,5.48,0,0,1,4.8,1.68,6.71,6.71,0,0,1,2,4.92v3.12a6.57,6.57,0,0,1-1.92,4.74,7.83,7.83,0,0,1-4.8,2.34q-9.24,1.2-14.76,6.9a19.18,19.18,0,0,0-5.52,13.86V98.17a7,7,0,0,1-6.84,6.84h-9.72a7,7,0,0,1-6.84-6.84V49.45a7,7,0,0,1,6.84-6.84h9.12a7,7,0,0,1,6.84,6.84v5a.11.11,0,0,0,.12.12.35.35,0,0,0,.24-.12,29.34,29.34,0,0,1,20.4-11.64"/>
  <ellipse style="paint-order: fill; fill-rule: nonzero; fill: rgb(77, 72, 84);" cx="36.177" cy="20.376" rx="13.964" ry="13.964"/>
  <ellipse style="paint-order: fill; fill-rule: nonzero; fill: rgb(255, 20, 120);" cx="25.253" cy="20.493" rx="13.964" ry="13.964"/>
</svg>